<?xml version="1.0" standalone="no"?>
<!DOCTYPE svg PUBLIC "-//W3C//DTD SVG 20010904//EN"
 "http://www.w3.org/TR/2001/REC-SVG-20010904/DTD/svg10.dtd">
<svg  version="1.0" xmlns="http://www.w3.org/2000/svg"
 width="512.000000pt" height="512.000000pt" viewBox="0 0 512.000000 512.000000"
 preserveAspectRatio="xMidYMid meet">

<g transform="translate(0.000000,512.000000) scale(0.100000,-0.100000)"
fill="#A07A5A" stroke="none">
<path d="M553 5108 c-12 -6 -27 -24 -32 -41 -8 -21 -11 -786 -11 -2463 l0
-2434 -228 0 c-215 0 -229 -1 -250 -20 -44 -41 -36 -116 14 -139 36 -16 4992
-16 5028 0 50 23 58 98 14 139 -20 19 -35 20 -210 20 l-188 0 0 80 c0 105 -14
168 -61 268 -30 66 -54 99 -111 156 -40 40 -93 83 -118 97 l-45 24 -3 1455 -2
1454 -22 23 -21 23 -658 0 -658 0 -3 661 -3 661 -28 24 -28 24 -1177 -1 c-808
0 -1184 -4 -1199 -11z m2265 -755 l-3 -598 -235 -5 c-129 -3 -240 -9 -247 -13
-7 -4 -17 -24 -23 -45 -6 -25 -10 -481 -10 -1356 l0 -1320 -27 26 c-45 42
-133 93 -203 119 -55 19 -84 23 -190 23 -136 1 -212 -18 -294 -71 -40 -26 -55
-21 -56 20 0 31 -37 57 -80 57 -71 0 -80 -19 -80 -164 0 -117 -2 -128 -30
-187 -16 -35 -35 -86 -41 -114 l-11 -52 -63 -12 c-35 -7 -94 -28 -131 -47 -37
-19 -69 -34 -71 -34 -2 0 -3 12 -3 27 0 40 -36 73 -79 73 -73 -1 -93 -42 -90
-185 1 -89 -1 -106 -24 -155 -15 -30 -32 -80 -40 -110 l-14 -55 -47 -3 -46 -3
0 2390 0 2391 1070 0 1070 0 -2 -597z m1362 -2138 l0 -1365 -82 0 c-46 0 -108
-7 -138 -15 -47 -13 -56 -12 -70 0 -24 21 -82 19 -107 -4 -11 -11 -23 -35 -27
-55 -5 -24 -22 -50 -53 -80 l-47 -44 -65 59 c-36 32 -94 72 -130 89 -36 17
-74 35 -83 41 -28 14 -209 11 -263 -6 -48 -14 -49 -14 -104 20 -97 60 -162 78
-281 78 -85 1 -116 -4 -165 -22 -33 -13 -68 -25 -77 -28 -17 -5 -18 64 -18
1346 l0 1351 855 0 855 0 0 -1365z m-2128 -1232 c120 -56 199 -151 232 -276
18 -69 31 -94 56 -107 42 -23 71 -12 136 50 83 80 154 113 248 114 68 1 166
-25 166 -43 0 -4 -15 -25 -33 -47 -71 -84 -110 -175 -122 -285 -6 -57 5 -161
22 -205 4 -12 -117 -14 -901 -14 -759 0 -906 2 -906 14 0 7 16 45 35 83 65
129 173 212 306 234 115 19 136 27 147 57 6 15 15 61 21 102 25 166 133 292
295 346 26 8 77 12 136 11 83 -2 104 -7 162 -34z m2154 -317 c195 -52 323
-229 312 -431 l-3 -60 -778 -3 -778 -2 -21 47 c-16 37 -22 68 -22 133 0 100
20 154 83 223 58 62 172 102 275 95 122 -8 233 -84 286 -197 29 -64 65 -82
115 -58 22 10 42 32 56 58 44 87 158 175 256 198 58 14 162 12 219 -3z"/>
<path d="M905 4771 c-39 -17 -49 -40 -53 -131 -5 -109 2 -154 30 -180 31 -28
88 -27 116 3 20 21 22 34 22 144 0 100 -3 124 -17 142 -20 24 -68 35 -98 22z"/>
<path d="M1413 4770 c-36 -15 -43 -43 -43 -168 0 -111 1 -120 23 -140 30 -28
86 -29 114 -2 27 25 37 87 31 191 -4 61 -9 85 -24 99 -23 23 -71 33 -101 20z"/>
<path d="M1925 4769 c-41 -23 -45 -39 -45 -161 0 -113 1 -120 25 -143 30 -31
86 -34 114 -6 26 26 34 72 30 180 -3 74 -8 94 -24 110 -25 25 -74 35 -100 20z"/>
<path d="M2434 4768 c-35 -16 -44 -52 -44 -169 0 -103 1 -111 25 -134 16 -17
35 -25 60 -25 25 0 44 8 60 25 24 23 25 31 25 134 0 61 -5 121 -11 134 -19 41
-71 57 -115 35z"/>
<path d="M904 4256 c-41 -18 -54 -57 -54 -161 0 -129 20 -165 93 -165 22 0 41
8 55 23 20 21 22 34 22 145 0 109 -2 124 -20 142 -11 11 -24 20 -29 20 -5 0
-15 2 -23 5 -7 2 -27 -2 -44 -9z"/>
<path d="M1414 4256 c-17 -8 -34 -21 -38 -31 -3 -9 -6 -70 -6 -136 0 -137 10
-159 76 -159 74 0 94 37 94 171 0 100 -14 137 -56 155 -39 16 -32 16 -70 0z"/>
<path d="M1931 4259 c-45 -17 -50 -36 -51 -165 0 -113 1 -122 23 -142 29 -28
86 -29 118 -3 23 18 24 25 24 145 0 112 -2 127 -20 145 -25 24 -63 32 -94 20z"/>
<path d="M2453 4262 c-13 -2 -32 -15 -43 -29 -17 -22 -20 -40 -20 -138 0 -98
3 -116 21 -139 16 -21 29 -26 64 -26 35 0 48 5 64 26 18 23 21 41 21 139 0 97
-3 116 -20 137 -20 26 -48 36 -87 30z"/>
<path d="M887 3738 c-26 -21 -37 -64 -37 -152 0 -106 13 -144 55 -162 39 -16
89 -3 105 26 6 10 10 72 10 138 0 111 -1 120 -23 140 -26 25 -83 30 -110 10z"/>
<path d="M1390 3730 c-18 -18 -20 -33 -20 -141 0 -66 4 -129 10 -139 16 -29
66 -42 105 -26 41 18 55 56 55 155 0 91 -14 147 -40 161 -32 17 -88 12 -110
-10z"/>
<path d="M1902 3727 c-20 -21 -22 -34 -22 -143 1 -82 5 -124 14 -136 30 -40
99 -43 133 -6 15 17 18 39 18 145 0 119 -1 126 -24 144 -33 27 -92 25 -119 -4z"/>
<path d="M882 3220 c-28 -26 -35 -71 -30 -181 5 -108 22 -134 89 -134 69 0 79
23 79 169 0 115 -1 124 -23 144 -30 28 -86 29 -115 2z"/>
<path d="M1392 3217 c-20 -21 -22 -34 -22 -144 0 -145 11 -168 79 -168 65 0
83 26 89 124 9 155 -15 211 -88 211 -25 0 -43 -7 -58 -23z"/>
<path d="M1905 3215 c-24 -23 -25 -30 -25 -145 0 -106 2 -122 20 -140 42 -42
111 -32 137 20 16 31 17 195 2 239 -20 56 -91 70 -134 26z"/>
<path d="M883 2706 c-28 -24 -28 -25 -28 -146 0 -121 0 -122 28 -146 37 -31
81 -31 112 1 24 23 25 30 25 145 0 115 -1 122 -25 145 -31 32 -75 32 -112 1z"/>
<path d="M1396 2709 c-26 -20 -26 -22 -26 -149 0 -127 0 -129 26 -149 35 -28
77 -26 111 3 28 24 28 25 28 146 0 121 0 122 -28 146 -34 29 -76 31 -111 3z"/>
<path d="M1905 2705 c-24 -23 -25 -30 -25 -145 0 -115 1 -122 25 -145 41 -42
116 -27 135 28 13 39 13 195 0 234 -19 55 -94 70 -135 28z"/>
<path d="M905 2211 c-39 -17 -49 -40 -53 -131 -5 -109 2 -154 30 -180 31 -28
88 -27 116 3 20 21 22 34 22 144 0 100 -3 124 -17 142 -20 24 -68 35 -98 22z"/>
<path d="M1413 2210 c-36 -15 -43 -43 -43 -168 0 -111 1 -120 23 -140 30 -28
86 -29 114 -2 27 25 37 87 31 191 -4 61 -9 85 -24 99 -23 23 -71 33 -101 20z"/>
<path d="M1925 2209 c-41 -23 -45 -39 -45 -161 0 -113 1 -120 25 -143 30 -31
86 -34 114 -6 26 26 34 72 30 180 -3 74 -8 94 -24 110 -25 25 -74 35 -100 20z"/>
<path d="M904 1696 c-41 -18 -54 -57 -54 -161 0 -129 20 -165 93 -165 22 0 41
8 55 23 20 21 22 34 22 145 0 109 -2 124 -20 142 -11 11 -24 20 -29 20 -5 0
-15 2 -23 5 -7 2 -27 -2 -44 -9z"/>
<path d="M1414 1696 c-17 -8 -34 -21 -38 -31 -3 -9 -6 -70 -6 -136 0 -137 10
-159 76 -159 74 0 94 37 94 171 0 100 -14 137 -56 155 -39 16 -32 16 -70 0z"/>
<path d="M1931 1699 c-45 -17 -50 -36 -51 -165 0 -113 1 -122 23 -142 29 -28
86 -29 118 -3 23 18 24 25 24 145 0 112 -2 127 -20 145 -25 24 -63 32 -94 20z"/>
<path d="M887 1178 c-26 -21 -37 -64 -37 -152 0 -106 13 -144 55 -162 39 -16
89 -3 105 26 6 10 10 72 10 138 0 111 -1 120 -23 140 -26 25 -83 30 -110 10z"/>
<path d="M2759 3391 c-22 -18 -24 -27 -27 -136 -3 -95 -1 -120 13 -141 22 -34
61 -48 98 -34 50 17 56 34 57 163 0 112 -1 119 -25 142 -30 31 -83 33 -116 6z"/>
<path d="M3277 3398 c-9 -7 -21 -26 -27 -41 -14 -40 -13 -206 3 -237 26 -52
95 -62 137 -20 18 18 20 34 20 143 0 116 -1 125 -23 145 -26 25 -83 30 -110
10z"/>
<path d="M3787 3396 c-10 -8 -22 -29 -27 -47 -14 -46 -11 -176 3 -219 14 -42
54 -64 98 -55 43 10 61 45 67 130 9 147 -16 205 -87 205 -20 0 -44 -7 -54 -14z"/>
<path d="M2769 2887 c-9 -7 -21 -22 -27 -34 -15 -28 -16 -214 -1 -247 23 -49
97 -58 139 -16 18 18 20 34 20 140 0 115 -1 122 -25 145 -27 27 -79 33 -106
12z"/>
<path d="M3272 2880 c-28 -26 -35 -68 -31 -180 4 -86 6 -93 32 -116 37 -31 81
-31 112 1 24 23 25 30 25 145 0 115 -1 122 -25 145 -30 31 -82 33 -113 5z"/>
<path d="M3783 2876 c-28 -24 -28 -25 -28 -146 0 -121 0 -122 28 -146 16 -13
41 -24 57 -24 16 0 41 11 57 24 28 24 28 25 28 146 0 121 0 122 -28 146 -16
13 -41 24 -57 24 -16 0 -41 -11 -57 -24z"/>
<path d="M2774 2378 c-34 -16 -44 -52 -44 -159 0 -104 13 -150 45 -163 35 -13
76 -6 100 19 24 23 25 30 25 142 -1 123 -5 139 -47 161 -26 14 -50 14 -79 0z"/>
<path d="M3274 2367 c-27 -24 -29 -30 -33 -117 -4 -112 3 -154 31 -180 31 -28
83 -26 113 5 24 23 25 30 25 143 0 137 -9 158 -71 168 -29 5 -41 1 -65 -19z"/>
<path d="M3805 2381 c-44 -19 -50 -38 -50 -162 0 -110 1 -119 24 -143 18 -19
35 -26 61 -26 26 0 43 7 61 26 23 24 24 32 24 145 0 105 -2 121 -20 138 -23
24 -71 34 -100 22z"/>
<path d="M2783 1870 c-46 -19 -55 -50 -51 -175 3 -109 5 -118 27 -136 36 -29
94 -25 120 7 19 24 21 40 21 143 -1 125 -6 143 -54 161 -32 12 -34 12 -63 0z"/>
<path d="M3304 1873 c-44 -8 -58 -38 -62 -133 -7 -153 13 -200 86 -200 27 0
45 7 60 23 20 21 22 34 22 145 0 109 -2 124 -20 142 -11 11 -24 20 -29 20 -5
0 -15 2 -23 4 -7 2 -23 1 -34 -1z"/>
<path d="M3803 1865 c-39 -17 -53 -59 -53 -160 0 -126 22 -165 90 -165 68 0
90 39 90 165 0 103 -14 144 -55 161 -40 16 -32 17 -72 -1z"/>
<path d="M2754 1339 c-16 -18 -20 -40 -22 -139 -3 -111 -2 -118 20 -145 33
-38 93 -38 125 0 21 24 23 36 23 139 0 99 -3 117 -21 140 -27 34 -96 37 -125
5z"/>
<path d="M3277 1348 c-9 -7 -21 -26 -27 -41 -11 -31 -12 -187 -1 -227 9 -35
63 -61 103 -49 51 14 57 32 58 165 0 107 -2 123 -20 142 -24 25 -85 30 -113
10z"/>
<path d="M3788 1349 c-24 -13 -38 -71 -38 -154 0 -103 14 -143 56 -161 29 -12
39 -12 68 0 42 18 56 58 56 161 0 85 -15 141 -40 155 -24 13 -80 12 -102 -1z"/>
</g>
</svg>
