<?xml version="1.0" standalone="no"?>
<!DOCTYPE svg PUBLIC "-//W3C//DTD SVG 20010904//EN"
 "http://www.w3.org/TR/2001/REC-SVG-20010904/DTD/svg10.dtd">
<svg version="1.0" xmlns="http://www.w3.org/2000/svg"
 width="512.000000pt" height="512.000000pt" viewBox="0 0 512.000000 512.000000"
 preserveAspectRatio="xMidYMid meet">

<g transform="translate(0.000000,512.000000) scale(0.100000,-0.100000)"
fill="#A07A5A" stroke="none">
<path d="M655 4996 c-167 -54 -296 -191 -325 -345 -6 -34 -10 -391 -10 -967
l0 -914 -30 0 c-48 0 -135 -38 -182 -79 -24 -22 -57 -65 -73 -97 -26 -51 -30
-70 -30 -139 1 -90 21 -147 74 -207 l31 -36 0 -338 c0 -257 4 -362 15 -434 50
-309 214 -601 448 -798 l38 -33 -90 -179 c-97 -191 -108 -234 -73 -276 38 -48
102 -58 146 -23 16 13 61 88 112 190 46 93 86 169 88 169 2 0 36 -15 77 -34
103 -47 206 -81 329 -108 l105 -23 1255 0 1255 0 105 23 c123 27 226 61 329
108 41 19 75 34 77 34 2 0 42 -76 88 -169 51 -102 96 -177 112 -190 44 -35
108 -25 146 23 34 42 23 84 -72 275 l-90 181 43 37 c238 208 392 485 442 793
11 72 15 177 15 434 l0 338 31 36 c53 60 73 117 73 207 1 63 -4 90 -22 126
-34 70 -87 125 -150 156 l-57 28 -2175 5 -2175 5 0 925 0 925 22 42 c12 22 39
55 60 72 68 56 99 61 387 61 241 0 264 -2 306 -21 76 -34 120 -90 135 -170 l7
-36 -60 -22 c-104 -37 -209 -126 -266 -224 -48 -82 -56 -127 -56 -333 0 -178
1 -193 21 -217 35 -46 66 -48 481 -45 l388 3 32 33 33 32 3 148 c5 182 -7 274
-47 357 -50 109 -165 214 -273 251 -45 15 -45 16 -51 67 -16 155 -127 298
-277 360 -53 21 -69 22 -370 24 -236 1 -325 -2 -355 -11z m1000 -650 c55 -25
119 -90 141 -142 9 -22 14 -72 14 -144 l0 -110 -265 0 -265 0 0 103 c0 91 3
109 26 155 66 133 225 196 349 138z m3189 -1800 c46 -19 71 -74 56 -121 -6
-19 -23 -44 -37 -55 -26 -20 -35 -20 -2302 -20 -2089 0 -2278 1 -2300 16 -61
43 -60 134 2 173 32 21 33 21 2290 21 1895 0 2263 -2 2291 -14z m-47 -733 c-6
-392 -20 -473 -123 -673 -177 -343 -516 -561 -934 -599 -156 -15 -2204 -15
-2360 0 -418 38 -757 256 -934 599 -103 200 -117 281 -123 673 l-5 317 2242 0
2242 0 -5 -317z"/>
</g>
</svg>
