<svg width="31" height="32" viewBox="0 0 31 32" fill="none" xmlns="http://www.w3.org/2000/svg">
<path fill-rule="evenodd" clip-rule="evenodd" d="M14.0278 0.0388474C9.17384 0.559743 4.92687 3.28137 2.34264 7.52724C-0.653538 12.45 -0.786027 18.865 2.00472 23.8913C3.47362 26.5368 5.62824 28.7121 8.17136 30.1168C10.3352 31.3121 12.7239 31.9713 14.967 31.9924L15.7855 32L15.801 25.7854L15.8165 19.5709H14.1487H12.4809V17.5682V15.5655L14.1332 15.5489L15.7855 15.5322L15.8199 13.4346C15.851 11.5307 15.8665 11.2907 15.9879 10.8361C16.4496 9.10608 17.5637 7.95516 19.2418 7.47446C19.6782 7.34942 19.8698 7.33527 21.1518 7.33345C21.9355 7.33232 22.8427 7.3548 23.1679 7.38335L23.7591 7.43526V9.24027V11.0453L22.319 11.0662C20.8872 11.0869 20.8771 11.088 20.5659 11.2572C19.8978 11.6205 19.8178 11.9116 19.8178 13.9768V15.5635H21.7278C22.7783 15.5635 23.6377 15.5847 23.6376 15.6105C23.6375 15.6363 23.5283 16.5151 23.3951 17.5633C23.2618 18.6114 23.1528 19.492 23.1528 19.52C23.1528 19.548 22.4024 19.5709 21.4853 19.5709H19.8178V25.488C19.8178 28.7424 19.8284 31.4052 19.8414 31.4052C19.957 31.4052 21.4003 30.8416 21.9467 30.583C23.7703 29.7202 25.1863 28.6811 26.6403 27.1391C27.9054 25.7975 28.6906 24.6376 29.4962 22.9208C30.2124 21.3944 30.701 19.6924 30.9251 17.9429C31.0249 17.1642 31.0249 14.7542 30.9252 14.0295C30.4155 10.327 28.935 7.21216 26.4797 4.67675C24.0747 2.19318 21.0769 0.644399 17.6652 0.122752C16.9214 0.00897995 14.7686 -0.0406112 14.0278 0.0388474Z" fill="white"/>
</svg>
