<svg width="32" height="32" viewBox="0 0 32 32" fill="none" xmlns="http://www.w3.org/2000/svg">
<path fill-rule="evenodd" clip-rule="evenodd" d="M14.481 0.0388523C9.47415 0.5595 5.0861 3.28435 2.42048 7.52819C-1.35893 13.5453 -0.653556 21.4924 4.1247 26.7274C6.7691 29.6246 10.0763 31.3567 14.0422 31.9217C14.7827 32.0271 17.2433 32.0258 18.0163 31.9195C21.6384 31.4215 24.8824 29.815 27.3496 27.2975C28.1593 26.4712 28.3318 26.2736 28.8688 25.5573C30.4693 23.4227 31.5171 20.8205 31.9215 17.9765C32.0262 17.2396 32.0262 14.7677 31.9214 14.0312C31.6517 12.1353 31.1613 10.5199 30.3745 8.93564C29.5408 7.25709 28.6853 6.06043 27.3538 4.71021C24.8837 2.20548 21.7909 0.649552 18.2353 0.122767C17.4676 0.00898108 15.2457 -0.0406163 14.481 0.0388523ZM19.7892 6.861C21.5881 6.97754 22.64 7.37182 23.6021 8.29006C24.5796 9.22308 25.0305 10.3691 25.1507 12.2259C25.2299 13.4494 25.2298 18.526 25.1506 19.7689C25.0311 21.6433 24.5705 22.8024 23.5683 23.7509C22.6354 24.6338 21.5568 25.0321 19.7892 25.1467C18.5883 25.2245 13.4389 25.2245 12.2381 25.1467C10.4392 25.0301 9.38728 24.6358 8.42519 23.7176C7.44769 22.7846 6.99672 21.6385 6.87656 19.7818C6.79795 18.5674 6.79839 13.3454 6.87724 12.1902C7.00235 10.3564 7.45489 9.21619 8.42519 8.29006C9.34823 7.40908 10.4578 6.97466 12.063 6.86576C13.1209 6.794 18.7022 6.79055 19.7892 6.861ZM13.7293 8.49609C11.8493 8.52997 11.5458 8.54951 11.1231 8.66404C9.79182 9.02481 9.03606 9.78142 8.67959 11.1102C8.56619 11.533 8.5466 11.8467 8.51174 13.7964C8.49009 15.0105 8.49009 16.9972 8.51174 18.2113C8.5466 20.161 8.56619 20.4747 8.67959 20.8974C9.03619 22.2267 9.79464 22.9857 11.1231 23.3425C11.5456 23.456 11.8591 23.4756 13.8076 23.5105C15.0209 23.5321 17.0064 23.5321 18.2197 23.5105C20.1842 23.4753 20.4793 23.4566 20.9148 23.3397C22.2109 22.992 22.9958 22.2069 23.3456 20.9081C23.4634 20.4709 23.4815 20.1837 23.5162 18.2113C23.5375 16.9972 23.5375 15.0104 23.5162 13.7964C23.4818 11.8398 23.4628 11.5345 23.3484 11.1102C22.9892 9.77848 22.228 9.01761 20.9042 8.66692C20.4162 8.53773 20.287 8.53166 16.7646 8.47292C16.2655 8.46459 14.8996 8.47498 13.7293 8.49609ZM21.3135 10.0587C21.5533 10.1493 21.8313 10.4195 21.9355 10.6632C22.2379 11.3704 21.6981 12.1838 20.9264 12.1838C20.3367 12.1838 19.8312 11.6808 19.8312 11.094C19.8312 10.3357 20.6091 9.79232 21.3135 10.0587ZM17.532 11.5386C18.2888 11.8042 18.709 12.0688 19.303 12.6535C19.8788 13.2203 20.2388 13.7854 20.4997 14.5322C20.6623 14.9976 20.6748 15.1021 20.6748 16.0038C20.6748 16.9055 20.6623 17.0101 20.4997 17.4755C20.2475 18.1974 19.878 18.7855 19.3357 19.328C18.7935 19.8706 18.2058 20.2403 17.4843 20.4928C17.0192 20.6555 16.9148 20.6679 16.0136 20.6679C15.1125 20.6679 15.008 20.6555 14.5429 20.4928C13.7965 20.2316 13.2319 19.8715 12.6654 19.2953C12.0839 18.7039 11.8199 18.2854 11.5474 17.5231C11.359 16.9963 11.3512 16.9358 11.3532 16.0038C11.3551 15.119 11.3702 14.9888 11.5238 14.5322C11.8499 13.5618 12.546 12.6481 13.383 12.0913C14.3003 11.4811 14.9554 11.2993 16.1388 11.3266C16.8926 11.3441 17.0428 11.3669 17.532 11.5386ZM15.2755 13.0328C13.6301 13.4759 12.628 15.1279 13.0414 16.7158C13.3407 17.8656 14.1547 18.6789 15.3066 18.9791C17.4576 19.5397 19.5473 17.4487 18.987 15.2964C18.5509 13.6212 16.8784 12.6011 15.2755 13.0328Z" fill="white"/>
</svg>
