<svg width="31" height="32" viewBox="0 0 31 32" fill="none" xmlns="http://www.w3.org/2000/svg">
<path fill-rule="evenodd" clip-rule="evenodd" d="M14.0619 0.0371544C5.93233 0.847001 -0.252826 8.06128 0.00795015 16.4296C0.0837397 18.8634 0.594015 20.9706 1.62803 23.1205C3.13866 26.2612 5.55192 28.7515 8.60127 30.3164C13.5445 32.8532 19.3865 32.5044 23.9972 29.3971C25.8 28.1822 27.5085 26.381 28.6749 24.4658C29.1182 23.7379 29.7875 22.3228 30.0915 21.4709C30.3978 20.6124 30.755 19.1224 30.8875 18.1504C31.0217 17.1658 31.0398 14.8879 30.9203 14.0204C30.5624 11.4219 29.764 9.2096 28.4384 7.14349C27.8746 6.26481 27.3116 5.5559 26.5272 4.73711C24.109 2.21283 21.1008 0.647261 17.6612 0.12282C16.9195 0.00974652 14.8351 -0.0398755 14.0619 0.0371544ZM9.76631 7.63696C10.374 7.80028 10.845 8.20658 11.1057 8.79222C11.2998 9.22837 11.2854 9.96551 11.0735 10.4321C10.7567 11.1297 10.1632 11.5447 9.40797 11.5969C8.60946 11.652 7.96312 11.2829 7.57084 10.5475C7.3696 10.1704 7.3539 10.102 7.35444 9.60889C7.35511 8.9929 7.47364 8.65769 7.83792 8.24156C8.12471 7.91398 8.37202 7.75754 8.78359 7.64328C9.20904 7.52526 9.34746 7.52439 9.76631 7.63696ZM20.9872 13.0482C22.1678 13.3598 22.8886 14.0465 23.2939 15.2453C23.6296 16.2383 23.6453 16.4585 23.6764 20.6065L23.7051 24.4392H22.006H20.307L20.285 21.0132C20.2635 17.651 20.2605 17.5793 20.1257 17.1609C19.8587 16.3323 19.3999 15.9952 18.536 15.9929C17.4563 15.99 16.9381 16.3991 16.6147 17.5094C16.5344 17.785 16.5152 18.3656 16.4947 21.1384L16.4703 24.4392H14.8072H13.1442V18.8074V13.1757H14.7509H16.3576L16.361 13.9422L16.3644 14.7088L16.4974 14.5237C17.1234 13.6531 17.8929 13.1433 18.8738 12.9496C19.4136 12.843 20.3807 12.8881 20.9872 13.0482ZM11.0072 18.7918L10.9917 24.4079L9.30921 24.4245L7.62668 24.4412V18.8084V13.1757H9.32467H11.0227L11.0072 18.7918Z" fill="white"/>
</svg>
