<?xml version="1.0" standalone="no"?>
<!DOCTYPE svg PUBLIC "-//W3C//DTD SVG 20010904//EN"
 "http://www.w3.org/TR/2001/REC-SVG-20010904/DTD/svg10.dtd">
<svg version="1.0" xmlns="http://www.w3.org/2000/svg"
 width="512.000000pt" height="512.000000pt" viewBox="0 0 512.000000 512.000000"
 preserveAspectRatio="xMidYMid meet">

<g transform="translate(0.000000,512.000000) scale(0.100000,-0.100000)"
fill="#A07A5A" stroke="none">
<path d="M2425 5060 c-349 -34 -651 -173 -904 -415 -348 -333 -520 -843 -432
-1280 82 -408 478 -1135 1063 -1955 137 -192 183 -239 267 -278 80 -37 202
-37 282 0 84 39 130 86 267 278 562 788 941 1475 1051 1905 82 319 13 716
-179 1030 -226 371 -604 628 -1028 699 -112 19 -285 26 -387 16z m337 -873
c360 -132 520 -529 351 -870 -50 -99 -171 -220 -270 -270 -295 -146 -647 -45
-815 234 -63 103 -83 183 -83 324 0 99 4 132 23 186 73 212 252 373 467 419
22 5 90 8 150 6 86 -3 125 -9 177 -29z"/>
<path d="M1190 1918 c-680 -156 -1098 -422 -1175 -750 -120 -509 562 -926
1745 -1067 287 -35 466 -44 800 -44 334 0 513 9 800 44 1183 141 1865 558
1745 1067 -65 273 -353 497 -855 662 -196 65 -511 136 -521 118 -4 -7 -62 -96
-128 -198 -80 -123 -116 -187 -108 -191 7 -4 68 -16 137 -28 511 -90 982 -291
1039 -444 28 -73 -68 -166 -274 -267 -309 -152 -692 -243 -1265 -302 -171 -18
-969 -18 -1140 0 -573 59 -956 150 -1265 302 -206 101 -302 194 -274 267 58
153 527 354 1039 444 69 12 130 24 137 28 13 7 -235 401 -252 400 -5 0 -89
-19 -185 -41z"/>
</g>
</svg>
