<svg width="15" height="15" viewBox="0 0 15 15" fill="none" xmlns="http://www.w3.org/2000/svg">
<path fill-rule="evenodd" clip-rule="evenodd" d="M2.59655 0.0396076C2.2329 0.118492 2.16284 0.173204 1.21242 1.12108C0.383024 1.94827 0.31888 2.01979 0.221576 2.22555C0.0612452 2.56464 0.0212288 2.74887 0.00386878 3.22831C-0.0136678 3.71244 0.0259955 4.03232 0.172673 4.58918C1.0563 7.94395 5.01701 12.3562 8.80786 14.2088C9.93203 14.7582 10.7808 14.9971 11.6178 15C12.1302 15.0017 12.3893 14.95 12.7444 14.7753C12.973 14.6629 13.0331 14.6096 13.8585 13.7875C14.7827 12.8669 14.838 12.7973 14.9541 12.4071C15.0153 12.2017 15.0153 11.8165 14.9541 11.6111C14.8488 11.2572 14.8059 11.2057 13.637 10.0335C13.02 9.41477 12.4358 8.85217 12.3387 8.78325C11.7549 8.36888 11.0053 8.42635 10.517 8.92289C10.3693 9.07315 10.3124 9.16113 10.2103 9.39746C10.1414 9.55702 10.0492 9.73594 10.0055 9.79502C9.72432 10.1749 9.18139 10.4167 8.71959 10.3679C8.0311 10.295 7.00388 9.6748 6.13373 8.80655C5.08033 7.75544 4.45902 6.54606 4.61055 5.84165C4.68111 5.51364 4.91206 5.17041 5.1852 4.98756C5.25187 4.94294 5.39249 4.86986 5.49768 4.82522C5.80328 4.6954 5.87845 4.65284 6.0203 4.5293C6.50992 4.10288 6.61708 3.30476 6.2607 2.73893C6.1558 2.57242 4.12691 0.525646 3.87937 0.336634C3.68202 0.185935 3.42301 0.0698823 3.18985 0.0276385C2.96897 -0.0123758 2.82255 -0.00941287 2.59655 0.0396076Z" fill="white"/>
</svg>
