<?xml version="1.0" standalone="no"?>
<!DOCTYPE svg PUBLIC "-//W3C//DTD SVG 20010904//EN"
 "http://www.w3.org/TR/2001/REC-SVG-20010904/DTD/svg10.dtd">
<svg version="1.0" xmlns="http://www.w3.org/2000/svg"
 width="512.000000pt" height="512.000000pt" viewBox="0 0 512.000000 512.000000"
 preserveAspectRatio="xMidYMid meet">

<g transform="translate(0.000000,512.000000) scale(0.100000,-0.100000)"
fill="#A07A5A" stroke="none">
<path d="M465 5092 c-63 -47 -452 -444 -460 -470 -24 -80 51 -158 132 -137 17
4 82 60 160 138 l133 131 0 -2056 0 -2057 -184 -3 c-179 -3 -185 -4 -210 -27
-35 -33 -44 -85 -21 -127 10 -18 25 -36 34 -41 9 -4 97 -10 196 -13 l180 -5 5
-180 c3 -99 9 -187 13 -196 5 -9 23 -24 41 -34 42 -23 94 -14 127 21 23 25 24
31 27 210 l3 184 2056 0 2056 0 -131 -133 c-74 -76 -134 -145 -137 -160 -22
-85 64 -161 144 -128 36 16 476 458 486 489 18 59 3 79 -237 319 -128 128
-246 237 -262 243 -81 30 -164 -66 -125 -143 6 -12 68 -79 137 -149 l127 -128
-2058 0 -2057 0 0 2057 0 2058 128 -127 c70 -69 137 -131 149 -137 76 -39 170
41 144 122 -7 21 -93 114 -244 265 -211 211 -237 234 -273 239 -32 4 -46 0
-79 -25z"/>
<path d="M2730 4257 c-19 -7 -345 -132 -724 -278 -627 -240 -691 -267 -707
-294 -18 -29 -19 -72 -19 -908 0 -942 -1 -920 49 -946 47 -25 1426 -551 1445
-551 21 0 1373 515 1433 546 66 34 64 -11 61 963 l-3 880 -29 30 c-17 17 -34
31 -38 31 -5 0 -318 119 -696 264 -378 145 -698 267 -712 270 -14 3 -41 0 -60
-7z m582 -418 c288 -111 528 -204 535 -208 13 -7 -1040 -416 -1072 -416 -23 0
-1087 407 -1080 413 9 9 1061 411 1077 412 9 0 252 -90 540 -201z m-1311 -563
c277 -107 541 -208 587 -226 l82 -31 0 -735 c0 -547 -3 -734 -12 -734 -6 0
-271 100 -590 222 l-578 223 0 737 c0 406 2 738 4 738 2 0 230 -87 507 -194z
m2045 -1283 c-2 -2 -255 -100 -562 -218 -308 -118 -569 -219 -582 -225 l-22
-10 2 741 3 741 580 223 580 223 3 -736 c1 -404 0 -737 -2 -739z"/>
</g>
</svg>
