<?xml version="1.0" encoding="UTF-8"?> <svg xmlns="http://www.w3.org/2000/svg" width="84" height="59" viewBox="0 0 84 59" fill="none"> <path d="M4 25.4561C1.79086 25.4561 0 27.2469 0 29.4561C0 31.6652 1.79086 33.4561 4 33.4561V25.4561ZM82.8284 32.2845C84.3905 30.7224 84.3905 28.1897 82.8284 26.6276L57.3726 1.17178C55.8105 -0.390314 53.2778 -0.390314 51.7157 1.17178C50.1536 2.73388 50.1536 5.26654 51.7157 6.82864L74.3431 29.4561L51.7157 52.0835C50.1536 53.6456 50.1536 56.1782 51.7157 57.7403C53.2778 59.3024 55.8105 59.3024 57.3726 57.7403L82.8284 32.2845ZM4 33.4561H80V25.4561H4V33.4561Z" fill="white"></path> </svg> 