<?xml version="1.0" encoding="UTF-8"?> <svg xmlns="http://www.w3.org/2000/svg" width="4622" height="504" viewBox="0 0 4622 504" fill="none"> <path d="M-9.53674e-05 6.99997V2.99997H-4.0001V6.99997H-9.53674e-05ZM207.2 6.99997H211.2V2.99997H207.2V6.99997ZM207.2 77V81H211.2V77H207.2ZM74.1999 77V73H70.1999V77H74.1999ZM74.1999 220.5H70.1999V224.5H74.1999V220.5ZM179.2 220.5H183.2V216.5H179.2V220.5ZM179.2 290.5V294.5H183.2V290.5H179.2ZM74.1999 290.5V286.5H70.1999V290.5H74.1999ZM74.1999 497V501H78.1999V497H74.1999ZM-9.53674e-05 497H-4.0001V501H-9.53674e-05V497ZM-9.53674e-05 11H207.2V2.99997H-9.53674e-05V11ZM203.2 6.99997V77H211.2V6.99997H203.2ZM207.2 73H74.1999V81H207.2V73ZM70.1999 77V220.5H78.1999V77H70.1999ZM74.1999 224.5H179.2V216.5H74.1999V224.5ZM175.2 220.5V290.5H183.2V220.5H175.2ZM179.2 286.5H74.1999V294.5H179.2V286.5ZM70.1999 290.5V497H78.1999V290.5H70.1999ZM74.1999 493H-9.53674e-05V501H74.1999V493ZM3.9999 497V6.99997H-4.0001V497H3.9999ZM542.451 497L539.039 499.089L540.21 501H542.451V497ZM521.451 462.7L524.862 460.611L522.139 456.164L518.549 459.946L521.451 462.7ZM349.951 472.5L347.059 475.264L347.091 475.296L349.951 472.5ZM335.251 309.4L331.706 307.547L331.69 307.578L335.251 309.4ZM384.951 242.9L387.863 245.641L389.977 243.395L388.343 240.78L384.951 242.9ZM374.451 226.1L371.014 228.146L371.036 228.183L371.059 228.22L374.451 226.1ZM345.751 169.4L342.005 170.804L342.027 170.862L342.05 170.918L345.751 169.4ZM364.651 31.5L361.759 28.7366L361.757 28.7381L364.651 31.5ZM541.051 151.9L537.284 150.555L537.262 150.615L537.243 150.676L541.051 151.9ZM519.351 193.2L522.576 195.565L522.595 195.54L522.613 195.515L519.351 193.2ZM471.751 249.2L468.807 246.492L466.714 248.767L468.388 251.366L471.751 249.2ZM518.651 322L515.288 324.166L520.044 331.548L522.492 323.115L518.651 322ZM534.751 252V248H531.481L530.831 251.205L534.751 252ZM608.951 252L612.86 252.848L613.912 248H608.951V252ZM564.851 394.1L561.235 392.39L560.283 394.402L561.491 396.271L564.851 394.1ZM631.351 497V501H638.698L634.71 494.829L631.351 497ZM416.451 78.4L413.451 75.7535L413.406 75.8046L413.363 75.8571L416.451 78.4ZM435.351 192.5L431.953 194.611L434.614 198.894L438.179 195.328L435.351 192.5ZM469.651 150.5L466.186 148.501L469.651 150.5ZM471.051 77.7L474.155 75.1776L471.051 77.7ZM466.851 428.4L468.733 431.929L468.822 431.882L468.909 431.83L466.851 428.4ZM487.151 407.4L490.479 409.619L491.912 407.469L490.541 405.278L487.151 407.4ZM422.751 304.5L426.141 302.378L423.178 297.643L419.65 301.973L422.751 304.5ZM400.351 340.2L396.658 338.662L396.642 338.702L396.626 338.742L400.351 340.2ZM545.862 494.911L524.862 460.611L518.039 464.789L539.039 499.089L545.862 494.911ZM518.549 459.946C493.112 486.746 463.337 500 429.051 500V508C465.698 508 497.523 493.72 524.352 465.454L518.549 459.946ZM429.051 500C397.813 500 372.515 489.856 352.811 469.704L347.091 475.296C368.453 497.144 395.889 508 429.051 508V500ZM352.843 469.737C333.721 449.726 323.851 420.302 323.851 380.8H315.851C315.851 421.565 326.047 453.274 347.059 475.263L352.843 469.737ZM323.851 380.8C323.851 353.762 328.891 330.613 338.812 311.222L331.69 307.578C321.077 328.32 315.851 352.771 315.851 380.8H323.851ZM338.796 311.253C349.306 291.146 365.62 269.275 387.863 245.641L382.038 240.159C359.481 264.125 342.662 286.588 331.706 307.547L338.796 311.253ZM388.343 240.78L377.843 223.98L371.059 228.22L381.559 245.02L388.343 240.78ZM377.888 224.054C366.306 204.597 356.833 185.874 349.451 167.882L342.05 170.918C349.602 189.326 359.262 208.403 371.014 228.146L377.888 224.054ZM349.496 167.995C342.669 149.791 339.251 130.668 339.251 110.6H331.251C331.251 131.598 334.832 151.675 342.005 170.804L349.496 167.995ZM339.251 110.6C339.251 79.2792 348.751 53.9496 367.544 34.2619L361.757 28.7381C341.35 50.117 331.251 77.5207 331.251 110.6H339.251ZM367.543 34.2634C386.757 14.1553 412.027 3.99997 443.751 3.99997V-4.00003C410.141 -4.00003 382.678 6.84467 361.759 28.7366L367.543 34.2634ZM443.751 3.99997C474.135 3.99997 498.257 13.2628 516.522 31.5284L522.179 25.8716C502.178 5.87053 475.9 -4.00003 443.751 -4.00003V3.99997ZM516.522 31.5284C534.765 49.7713 544.051 74.3445 544.051 105.7H552.051C552.051 72.6554 542.203 45.8953 522.179 25.8716L516.522 31.5284ZM544.051 105.7C544.051 123.096 541.76 138.021 537.284 150.555L544.818 153.245C549.675 139.646 552.051 123.77 552.051 105.7H544.051ZM537.243 150.676C533.198 163.259 526.184 176.66 516.089 190.885L522.613 195.515C533.051 180.807 540.503 166.675 544.859 153.124L537.243 150.676ZM516.125 190.835C505.99 204.655 490.241 223.194 468.807 246.492L474.694 251.908C496.194 228.539 512.178 209.745 522.576 195.565L516.125 190.835ZM468.388 251.366L515.288 324.166L522.013 319.834L475.113 247.034L468.388 251.366ZM522.492 323.115C526.741 308.479 532.135 285.008 538.671 252.795L530.831 251.205C524.3 283.392 518.96 306.587 514.809 320.885L522.492 323.115ZM534.751 256H608.951V248H534.751V256ZM605.042 251.152C592.005 311.211 577.384 358.247 561.235 392.39L568.467 395.81C584.984 360.887 599.763 313.189 612.86 252.848L605.042 251.152ZM561.491 396.271L627.991 499.171L634.71 494.829L568.21 391.929L561.491 396.271ZM631.351 493H542.451V501H631.351V493ZM444.451 62.5C431.768 62.5 421.294 66.8653 413.451 75.7535L419.45 81.0464C425.607 74.068 433.8 70.5 444.451 70.5V62.5ZM413.363 75.8571C406.075 84.7063 402.651 96.4355 402.651 110.6H410.651C410.651 97.6978 413.759 87.9603 419.538 80.9428L413.363 75.8571ZM402.651 110.6C402.651 135.44 412.617 163.484 431.953 194.611L438.748 190.389C419.818 159.916 410.651 133.36 410.651 110.6H402.651ZM438.179 195.328C454.164 179.344 465.868 165.061 473.115 152.499L466.186 148.501C459.433 160.206 448.271 173.923 432.522 189.672L438.179 195.328ZM473.115 152.499C480.478 139.737 484.151 125.744 484.151 110.6H476.151C476.151 124.389 472.823 136.996 466.186 148.501L473.115 152.499ZM484.151 110.6C484.151 95.6584 481.03 83.6388 474.155 75.1776L467.946 80.2224C473.205 86.6945 476.151 96.6083 476.151 110.6H484.151ZM474.155 75.1776C467.167 66.5767 457.039 62.5 444.451 62.5V70.5C455.196 70.5 462.801 73.89 467.946 80.2224L474.155 75.1776ZM443.051 438C452.495 438 461.088 436.007 468.733 431.929L464.968 424.871C458.613 428.26 451.339 430 443.051 430V438ZM468.909 431.83C476.59 427.221 483.752 419.71 490.479 409.619L483.823 405.181C477.483 414.69 471.111 421.179 464.793 424.97L468.909 431.83ZM490.541 405.278L426.141 302.378L419.36 306.622L483.76 409.522L490.541 405.278ZM419.65 301.973C409.216 314.778 401.514 327.008 396.658 338.662L404.043 341.738C408.521 330.992 415.752 319.422 425.852 307.027L419.65 301.973ZM396.626 338.742C392.21 350.028 390.051 362.905 390.051 377.3H398.051C398.051 363.695 400.092 351.839 404.076 341.658L396.626 338.742ZM390.051 377.3C390.051 396.685 394.226 411.971 403.274 422.44C412.419 433.022 425.936 438 443.051 438V430C427.498 430 416.516 425.528 409.327 417.21C402.042 408.779 398.051 395.715 398.051 377.3H390.051ZM785.755 471.8L788.584 468.972L785.755 471.8ZM785.755 32.2L788.584 35.0284L785.755 32.2ZM985.955 173.6V177.6H989.955V173.6H985.955ZM913.155 173.6H909.155V177.6H913.155V173.6ZM901.255 82.6L904.163 79.8535L901.255 82.6ZM901.255 421.4L904.163 424.146L901.255 421.4ZM913.155 317.8V313.8H909.155V317.8H913.155ZM985.955 317.8H989.955V313.8H985.955V317.8ZM953.755 471.8L950.927 468.972L953.755 471.8ZM869.755 500C836.124 500 809.195 489.583 788.584 468.972L782.927 474.628C805.249 496.951 834.32 508 869.755 508V500ZM788.584 468.972C767.973 448.36 757.555 421.431 757.555 387.8H749.555C749.555 423.235 760.605 452.306 782.927 474.628L788.584 468.972ZM757.555 387.8V116.2H749.555V387.8H757.555ZM757.555 116.2C757.555 82.5688 767.973 55.6397 788.584 35.0284L782.927 29.3716C760.605 51.6936 749.555 80.7645 749.555 116.2H757.555ZM788.584 35.0284C809.195 14.4171 836.124 3.99997 869.755 3.99997V-4.00003C834.32 -4.00003 805.249 7.04948 782.927 29.3716L788.584 35.0284ZM869.755 3.99997C903.387 3.99997 930.316 14.4171 950.927 35.0284L956.584 29.3716C934.262 7.04948 905.191 -4.00003 869.755 -4.00003V3.99997ZM950.927 35.0284C971.538 55.6397 981.955 82.5688 981.955 116.2H989.955C989.955 80.7645 978.906 51.6936 956.584 29.3716L950.927 35.0284ZM981.955 116.2V173.6H989.955V116.2H981.955ZM985.955 169.6H913.155V177.6H985.955V169.6ZM917.155 173.6V116.2H909.155V173.6H917.155ZM917.155 116.2C917.155 101.407 912.941 89.1471 904.163 79.8535L898.347 85.3465C905.437 92.8529 909.155 102.993 909.155 116.2H917.155ZM904.163 79.8535C895.402 70.5763 884.045 66 870.455 66V74C882.066 74 891.242 77.8237 898.347 85.3465L904.163 79.8535ZM870.455 66C856.866 66 845.509 70.5763 836.747 79.8535L842.563 85.3465C849.668 77.8237 858.845 74 870.455 74V66ZM836.747 79.8535C827.97 89.1471 823.755 101.407 823.755 116.2H831.755C831.755 102.993 835.474 92.8529 842.563 85.3465L836.747 79.8535ZM823.755 116.2V387.8H831.755V116.2H823.755ZM823.755 387.8C823.755 402.593 827.97 414.853 836.747 424.146L842.563 418.654C835.474 411.147 831.755 401.007 831.755 387.8H823.755ZM836.747 424.146C845.509 433.424 856.866 438 870.455 438V430C858.845 430 849.668 426.176 842.563 418.654L836.747 424.146ZM870.455 438C884.045 438 895.402 433.424 904.163 424.146L898.347 418.654C891.242 426.176 882.066 430 870.455 430V438ZM904.163 424.146C912.941 414.853 917.155 402.593 917.155 387.8H909.155C909.155 401.007 905.437 411.147 898.347 418.654L904.163 424.146ZM917.155 387.8V317.8H909.155V387.8H917.155ZM913.155 321.8H985.955V313.8H913.155V321.8ZM981.955 317.8V387.8H989.955V317.8H981.955ZM981.955 387.8C981.955 421.431 971.538 448.36 950.927 468.972L956.584 474.628C978.906 452.306 989.955 423.235 989.955 387.8H981.955ZM950.927 468.972C930.316 489.583 903.387 500 869.755 500V508C905.191 508 934.262 496.951 956.584 474.628L950.927 468.972ZM1326.94 6.99997V2.99997H1322.94V6.99997H1326.94ZM1527.84 39.2L1524.98 41.9973L1525.01 42.0284L1527.84 39.2ZM1527.84 266.7L1530.67 269.529L1530.7 269.497L1527.84 266.7ZM1401.14 298.2V294.2H1397.14V298.2H1401.14ZM1401.14 497V501H1405.14V497H1401.14ZM1326.94 497H1322.94V501H1326.94V497ZM1473.24 88.9L1470.41 91.7284L1473.24 88.9ZM1401.14 77V73H1397.14V77H1401.14ZM1401.14 228.2H1397.14V232.2H1401.14V228.2ZM1326.94 11H1443.14V2.99997H1326.94V11ZM1443.14 11C1477.74 11 1504.87 21.438 1524.98 41.9971L1530.7 36.4028C1508.81 14.0285 1479.47 2.99997 1443.14 2.99997V11ZM1525.01 42.0284C1545.12 62.1353 1555.34 89.2733 1555.34 123.9H1563.34C1563.34 87.5933 1552.56 58.2646 1530.67 36.3715L1525.01 42.0284ZM1555.34 123.9V181.3H1563.34V123.9H1555.34ZM1555.34 181.3C1555.34 215.924 1545.12 243.317 1524.98 263.903L1530.7 269.497C1552.56 247.15 1563.34 217.609 1563.34 181.3H1555.34ZM1525.01 263.872C1504.9 283.978 1477.76 294.2 1443.14 294.2V302.2C1479.44 302.2 1508.77 291.422 1530.67 269.528L1525.01 263.872ZM1443.14 294.2H1401.14V302.2H1443.14V294.2ZM1397.14 298.2V497H1405.14V298.2H1397.14ZM1401.14 493H1326.94V501H1401.14V493ZM1330.94 497V6.99997H1322.94V497H1330.94ZM1439.64 232.2C1454.84 232.2 1467.18 228.012 1476.07 219.128L1470.41 213.472C1463.43 220.455 1453.36 224.2 1439.64 224.2V232.2ZM1476.07 219.128C1484.95 210.245 1489.14 197.907 1489.14 182.7H1481.14C1481.14 196.427 1477.39 206.488 1470.41 213.472L1476.07 219.128ZM1489.14 182.7V122.5H1481.14V182.7H1489.14ZM1489.14 122.5C1489.14 107.293 1484.95 94.955 1476.07 86.0716L1470.41 91.7284C1477.39 98.7116 1481.14 108.773 1481.14 122.5H1489.14ZM1476.07 86.0716C1467.18 77.1881 1454.84 73 1439.64 73V81C1453.36 81 1463.43 84.7452 1470.41 91.7284L1476.07 86.0716ZM1439.64 73H1401.14V81H1439.64V73ZM1397.14 77V228.2H1405.14V77H1397.14ZM1401.14 232.2H1439.64V224.2H1401.14V232.2ZM1854.67 497L1850.8 498.03L1851.59 501H1854.67V497ZM1800.77 294.7L1804.63 293.67L1803.84 290.7H1800.77V294.7ZM1762.27 294.7V290.7H1758.27V294.7H1762.27ZM1762.27 497V501H1766.27V497H1762.27ZM1688.07 497H1684.07V501H1688.07V497ZM1688.07 6.99997V2.99997H1684.07V6.99997H1688.07ZM1888.97 39.2L1886.11 41.9973L1886.14 42.0284L1888.97 39.2ZM1869.37 277.9L1867.31 274.47L1864.68 276.047L1865.52 278.994L1869.37 277.9ZM1931.67 497V501H1936.96L1935.51 495.906L1931.67 497ZM1762.27 224.7H1758.27V228.7H1762.27V224.7ZM1834.37 212.8L1837.19 215.628L1834.37 212.8ZM1834.37 88.9L1831.54 91.7284L1834.37 88.9ZM1762.27 77V73H1758.27V77H1762.27ZM1858.53 495.97L1804.63 293.67L1796.9 295.73L1850.8 498.03L1858.53 495.97ZM1800.77 290.7H1762.27V298.7H1800.77V290.7ZM1758.27 294.7V497H1766.27V294.7H1758.27ZM1762.27 493H1688.07V501H1762.27V493ZM1692.07 497V6.99997H1684.07V497H1692.07ZM1688.07 11H1804.27V2.99997H1688.07V11ZM1804.27 11C1838.87 11 1865.99 21.438 1886.11 41.9971L1891.83 36.4028C1869.94 14.0285 1840.6 2.99997 1804.27 2.99997V11ZM1886.14 42.0284C1906.24 62.1353 1916.47 89.2733 1916.47 123.9H1924.47C1924.47 87.5933 1913.69 58.2646 1891.79 36.3715L1886.14 42.0284ZM1916.47 123.9V177.8H1924.47V123.9H1916.47ZM1916.47 177.8C1916.47 199.663 1912.14 218.853 1903.61 235.473L1910.72 239.127C1919.92 221.214 1924.47 200.737 1924.47 177.8H1916.47ZM1903.61 235.473C1895.08 252.089 1882.99 265.062 1867.31 274.47L1871.42 281.33C1888.41 271.138 1901.52 257.044 1910.72 239.127L1903.61 235.473ZM1865.52 278.994L1927.82 498.094L1935.51 495.906L1873.21 276.806L1865.52 278.994ZM1931.67 493H1854.67V501H1931.67V493ZM1762.27 228.7H1800.77V220.7H1762.27V228.7ZM1800.77 228.7C1815.97 228.7 1828.31 224.512 1837.19 215.628L1831.54 209.972C1824.55 216.955 1814.49 220.7 1800.77 220.7V228.7ZM1837.19 215.628C1846.08 206.745 1850.27 194.407 1850.27 179.2H1842.27C1842.27 192.927 1838.52 202.988 1831.54 209.972L1837.19 215.628ZM1850.27 179.2V122.5H1842.27V179.2H1850.27ZM1850.27 122.5C1850.27 107.293 1846.08 94.955 1837.19 86.0716L1831.54 91.7284C1838.52 98.7116 1842.27 108.773 1842.27 122.5H1850.27ZM1837.19 86.0716C1828.31 77.1881 1815.97 73 1800.77 73V81C1814.49 81 1824.55 84.7452 1831.54 91.7284L1837.19 86.0716ZM1800.77 73H1762.27V81H1800.77V73ZM1758.27 77V224.7H1766.27V77H1758.27ZM2085.37 471.8L2082.54 474.629L2082.57 474.659L2085.37 471.8ZM2085.37 32.9L2088.16 35.7588L2088.19 35.7284L2085.37 32.9ZM2257.57 32.9L2254.74 35.7286L2254.77 35.7586L2257.57 32.9ZM2257.57 471.8L2260.36 474.659L2260.39 474.628L2257.57 471.8ZM2204.37 421.4L2201.46 418.654L2204.37 421.4ZM2204.37 82.6L2201.46 85.3465L2204.37 82.6ZM2171.47 500C2136.87 500 2109.23 489.562 2088.16 468.941L2082.57 474.659C2105.37 496.971 2135.13 508 2171.47 508V500ZM2088.19 468.972C2067.12 447.898 2056.47 420.271 2056.47 385.7H2048.47C2048.47 422.062 2059.74 451.836 2082.54 474.628L2088.19 468.972ZM2056.47 385.7V118.3H2048.47V385.7H2056.47ZM2056.47 118.3C2056.47 83.7272 2067.12 56.3545 2088.16 35.7586L2082.57 30.0413C2059.74 52.3788 2048.47 81.9395 2048.47 118.3H2056.47ZM2088.19 35.7284C2109.27 14.6545 2136.89 3.99997 2171.47 3.99997V-4.00003C2135.1 -4.00003 2105.33 7.27876 2082.54 30.0715L2088.19 35.7284ZM2171.47 3.99997C2206.04 3.99997 2233.66 14.6545 2254.74 35.7284L2260.39 30.0715C2237.6 7.27876 2207.83 -4.00003 2171.47 -4.00003V3.99997ZM2254.77 35.7586C2275.81 56.3545 2286.47 83.7272 2286.47 118.3H2294.47C2294.47 81.9395 2283.19 52.3788 2260.36 30.0413L2254.77 35.7586ZM2286.47 118.3V385.7H2294.47V118.3H2286.47ZM2286.47 385.7C2286.47 420.271 2275.81 447.898 2254.74 468.972L2260.39 474.628C2283.19 451.836 2294.47 422.062 2294.47 385.7H2286.47ZM2254.77 468.941C2233.7 489.562 2206.06 500 2171.47 500V508C2207.8 508 2237.57 496.971 2260.36 474.659L2254.77 468.941ZM2171.47 438C2186.32 438 2198.43 433.512 2207.27 424.146L2201.46 418.654C2194.44 426.088 2184.62 430 2171.47 430V438ZM2207.27 424.146C2216.12 414.784 2220.27 401.773 2220.27 385.7H2212.27C2212.27 400.427 2208.48 411.216 2201.46 418.654L2207.27 424.146ZM2220.27 385.7V118.3H2212.27V385.7H2220.27ZM2220.27 118.3C2220.27 102.227 2216.12 89.2155 2207.27 79.8535L2201.46 85.3465C2208.48 92.7845 2212.27 103.573 2212.27 118.3H2220.27ZM2207.27 79.8535C2198.43 70.4877 2186.32 66 2171.47 66V74C2184.62 74 2194.44 77.9123 2201.46 85.3465L2207.27 79.8535ZM2171.47 66C2156.62 66 2144.5 70.4877 2135.66 79.8535L2141.47 85.3465C2148.49 77.9123 2158.32 74 2171.47 74V66ZM2135.66 79.8535C2126.82 89.2155 2122.67 102.227 2122.67 118.3H2130.67C2130.67 103.573 2134.45 92.7845 2141.47 85.3465L2135.66 79.8535ZM2122.67 118.3V385.7H2130.67V118.3H2122.67ZM2122.67 385.7C2122.67 401.773 2126.82 414.784 2135.66 424.146L2141.47 418.654C2134.45 411.216 2130.67 400.427 2130.67 385.7H2122.67ZM2135.66 424.146C2144.5 433.512 2156.62 438 2171.47 438V430C2158.32 430 2148.49 426.088 2141.47 418.654L2135.66 424.146ZM2432.2 6.99997V2.99997H2428.2V6.99997H2432.2ZM2633.1 39.2L2630.24 41.9973L2630.27 42.0284L2633.1 39.2ZM2633.1 266.7L2635.93 269.529L2635.96 269.497L2633.1 266.7ZM2506.4 298.2V294.2H2502.4V298.2H2506.4ZM2506.4 497V501H2510.4V497H2506.4ZM2432.2 497H2428.2V501H2432.2V497ZM2578.5 88.9L2575.67 91.7284L2578.5 88.9ZM2506.4 77V73H2502.4V77H2506.4ZM2506.4 228.2H2502.4V232.2H2506.4V228.2ZM2432.2 11H2548.4V2.99997H2432.2V11ZM2548.4 11C2583 11 2610.13 21.438 2630.24 41.9971L2635.96 36.4028C2614.07 14.0285 2584.73 2.99997 2548.4 2.99997V11ZM2630.27 42.0284C2650.38 62.1353 2660.6 89.2733 2660.6 123.9H2668.6C2668.6 87.5933 2657.82 58.2646 2635.93 36.3715L2630.27 42.0284ZM2660.6 123.9V181.3H2668.6V123.9H2660.6ZM2660.6 181.3C2660.6 215.924 2650.38 243.317 2630.24 263.903L2635.96 269.497C2657.82 247.15 2668.6 217.609 2668.6 181.3H2660.6ZM2630.27 263.872C2610.16 283.978 2583.03 294.2 2548.4 294.2V302.2C2584.71 302.2 2614.03 291.422 2635.93 269.528L2630.27 263.872ZM2548.4 294.2H2506.4V302.2H2548.4V294.2ZM2502.4 298.2V497H2510.4V298.2H2502.4ZM2506.4 493H2432.2V501H2506.4V493ZM2436.2 497V6.99997H2428.2V497H2436.2ZM2544.9 232.2C2560.11 232.2 2572.44 228.012 2581.33 219.128L2575.67 213.472C2568.69 220.455 2558.63 224.2 2544.9 224.2V232.2ZM2581.33 219.128C2590.21 210.245 2594.4 197.907 2594.4 182.7H2586.4C2586.4 196.427 2582.65 206.488 2575.67 213.472L2581.33 219.128ZM2594.4 182.7V122.5H2586.4V182.7H2594.4ZM2594.4 122.5C2594.4 107.293 2590.21 94.955 2581.33 86.0716L2575.67 91.7284C2582.65 98.7116 2586.4 108.773 2586.4 122.5H2594.4ZM2581.33 86.0716C2572.44 77.1881 2560.11 73 2544.9 73V81C2558.63 81 2568.69 84.7452 2575.67 91.7284L2581.33 86.0716ZM2544.9 73H2506.4V81H2544.9V73ZM2502.4 77V228.2H2510.4V77H2502.4ZM2506.4 232.2H2544.9V224.2H2506.4V232.2ZM2793.33 6.99997V2.99997H2789.33V6.99997H2793.33ZM3004.03 6.99997H3008.03V2.99997H3004.03V6.99997ZM3004.03 77V81H3008.03V77H3004.03ZM2867.53 77V73H2863.53V77H2867.53ZM2867.53 213.5H2863.53V217.5H2867.53V213.5ZM2976.03 213.5H2980.03V209.5H2976.03V213.5ZM2976.03 283.5V287.5H2980.03V283.5H2976.03ZM2867.53 283.5V279.5H2863.53V283.5H2867.53ZM2867.53 427H2863.53V431H2867.53V427ZM3004.03 427H3008.03V423H3004.03V427ZM3004.03 497V501H3008.03V497H3004.03ZM2793.33 497H2789.33V501H2793.33V497ZM2793.33 11H3004.03V2.99997H2793.33V11ZM3000.03 6.99997V77H3008.03V6.99997H3000.03ZM3004.03 73H2867.53V81H3004.03V73ZM2863.53 77V213.5H2871.53V77H2863.53ZM2867.53 217.5H2976.03V209.5H2867.53V217.5ZM2972.03 213.5V283.5H2980.03V213.5H2972.03ZM2976.03 279.5H2867.53V287.5H2976.03V279.5ZM2863.53 283.5V427H2871.53V283.5H2863.53ZM2867.53 431H3004.03V423H2867.53V431ZM3000.03 427V497H3008.03V427H3000.03ZM3004.03 493H2793.33V501H3004.03V493ZM2797.33 497V6.99997H2789.33V497H2797.33ZM3299.18 497L3295.32 498.03L3296.11 501H3299.18V497ZM3245.28 294.7L3249.15 293.67L3248.36 290.7H3245.28V294.7ZM3206.78 294.7V290.7H3202.78V294.7H3206.78ZM3206.78 497V501H3210.78V497H3206.78ZM3132.58 497H3128.58V501H3132.58V497ZM3132.58 6.99997V2.99997H3128.58V6.99997H3132.58ZM3333.48 39.2L3330.62 41.9973L3330.65 42.0284L3333.48 39.2ZM3313.88 277.9L3311.82 274.47L3309.2 276.047L3310.03 278.994L3313.88 277.9ZM3376.18 497V501H3381.48L3380.03 495.906L3376.18 497ZM3206.78 224.7H3202.78V228.7H3206.78V224.7ZM3278.88 212.8L3281.71 215.628L3278.88 212.8ZM3278.88 88.9L3276.05 91.7284L3278.88 88.9ZM3206.78 77V73H3202.78V77H3206.78ZM3303.05 495.97L3249.15 293.67L3241.42 295.73L3295.32 498.03L3303.05 495.97ZM3245.28 290.7H3206.78V298.7H3245.28V290.7ZM3202.78 294.7V497H3210.78V294.7H3202.78ZM3206.78 493H3132.58V501H3206.78V493ZM3136.58 497V6.99997H3128.58V497H3136.58ZM3132.58 11H3248.78V2.99997H3132.58V11ZM3248.78 11C3283.38 11 3310.51 21.438 3330.62 41.9971L3336.34 36.4028C3314.45 14.0285 3285.11 2.99997 3248.78 2.99997V11ZM3330.65 42.0284C3350.76 62.1353 3360.98 89.2733 3360.98 123.9H3368.98C3368.98 87.5933 3358.2 58.2646 3336.31 36.3715L3330.65 42.0284ZM3360.98 123.9V177.8H3368.98V123.9H3360.98ZM3360.98 177.8C3360.98 199.663 3356.66 218.853 3348.12 235.473L3355.24 239.127C3364.44 221.214 3368.98 200.737 3368.98 177.8H3360.98ZM3348.12 235.473C3339.59 252.089 3327.5 265.062 3311.82 274.47L3315.94 281.33C3332.93 271.138 3346.04 257.044 3355.24 239.127L3348.12 235.473ZM3310.03 278.994L3372.33 498.094L3380.03 495.906L3317.73 276.806L3310.03 278.994ZM3376.18 493H3299.18V501H3376.18V493ZM3206.78 228.7H3245.28V220.7H3206.78V228.7ZM3245.28 228.7C3260.49 228.7 3272.83 224.512 3281.71 215.628L3276.05 209.972C3269.07 216.955 3259.01 220.7 3245.28 220.7V228.7ZM3281.71 215.628C3290.59 206.745 3294.78 194.407 3294.78 179.2H3286.78C3286.78 192.927 3283.04 202.988 3276.05 209.972L3281.71 215.628ZM3294.78 179.2V122.5H3286.78V179.2H3294.78ZM3294.78 122.5C3294.78 107.293 3290.59 94.955 3281.71 86.0716L3276.05 91.7284C3283.04 98.7116 3286.78 108.773 3286.78 122.5H3294.78ZM3281.71 86.0716C3272.83 77.1881 3260.49 73 3245.28 73V81C3259.01 81 3269.07 84.7452 3276.05 91.7284L3281.71 86.0716ZM3245.28 73H3206.78V81H3245.28V73ZM3202.78 77V224.7H3210.78V77H3202.78ZM3478.11 6.99997V2.99997H3474.11V6.99997H3478.11ZM3714.71 6.99997H3718.71V2.99997H3714.71V6.99997ZM3714.71 77V81H3718.71V77H3714.71ZM3633.51 77V73H3629.51V77H3633.51ZM3633.51 497V501H3637.51V497H3633.51ZM3559.31 497H3555.31V501H3559.31V497ZM3559.31 77H3563.31V73H3559.31V77ZM3478.11 77H3474.11V81H3478.11V77ZM3478.11 11H3714.71V2.99997H3478.11V11ZM3710.71 6.99997V77H3718.71V6.99997H3710.71ZM3714.71 73H3633.51V81H3714.71V73ZM3629.51 77V497H3637.51V77H3629.51ZM3633.51 493H3559.31V501H3633.51V493ZM3563.31 497V77H3555.31V497H3563.31ZM3559.31 73H3478.11V81H3559.31V73ZM3482.11 77V6.99997H3474.11V77H3482.11ZM3838.43 6.99997V2.99997H3834.43V6.99997H3838.43ZM3912.63 6.99997H3916.63V2.99997H3912.63V6.99997ZM3912.63 497V501H3916.63V497H3912.63ZM3838.43 497H3834.43V501H3838.43V497ZM3838.43 11H3912.63V2.99997H3838.43V11ZM3908.63 6.99997V497H3916.63V6.99997H3908.63ZM3912.63 493H3838.43V501H3912.63V493ZM3842.43 497V6.99997H3834.43V497H3842.43ZM4060.11 6.99997V2.99997H4056.11V6.99997H4060.11ZM4270.81 6.99997H4274.81V2.99997H4270.81V6.99997ZM4270.81 77V81H4274.81V77H4270.81ZM4134.31 77V73H4130.31V77H4134.31ZM4134.31 213.5H4130.31V217.5H4134.31V213.5ZM4242.81 213.5H4246.81V209.5H4242.81V213.5ZM4242.81 283.5V287.5H4246.81V283.5H4242.81ZM4134.31 283.5V279.5H4130.31V283.5H4134.31ZM4134.31 427H4130.31V431H4134.31V427ZM4270.81 427H4274.81V423H4270.81V427ZM4270.81 497V501H4274.81V497H4270.81ZM4060.11 497H4056.11V501H4060.11V497ZM4060.11 11H4270.81V2.99997H4060.11V11ZM4266.81 6.99997V77H4274.81V6.99997H4266.81ZM4270.81 73H4134.31V81H4270.81V73ZM4130.31 77V213.5H4138.31V77H4130.31ZM4134.31 217.5H4242.81V209.5H4134.31V217.5ZM4238.81 213.5V283.5H4246.81V213.5H4238.81ZM4242.81 279.5H4134.31V287.5H4242.81V279.5ZM4130.31 283.5V427H4138.31V283.5H4130.31ZM4134.31 431H4270.81V423H4134.31V431ZM4266.81 427V497H4274.81V427H4266.81ZM4270.81 493H4060.11V501H4270.81V493ZM4064.11 497V6.99997H4056.11V497H4064.11ZM4439.96 488.6L4438 492.084L4439.96 488.6ZM4397.26 445.9L4393.74 447.796L4393.76 447.831L4393.78 447.865L4397.26 445.9ZM4382.56 366.1L4382.13 362.123L4378.56 362.508V366.1H4382.56ZM4453.96 358.4H4457.96V353.945L4453.53 354.423L4453.96 358.4ZM4466.56 418.6L4469.66 416.067L4466.56 418.6ZM4535.86 421.4L4533.11 418.496L4533.07 418.533L4533.03 418.572L4535.86 421.4ZM4535.16 341.6L4531.75 343.69L4531.78 343.73L4531.8 343.768L4535.16 341.6ZM4481.26 281.4L4478.51 284.302L4478.51 284.302L4481.26 281.4ZM4406.36 195.3L4402.89 197.285L4402.91 197.311L4402.92 197.337L4406.36 195.3ZM4416.86 32.9L4419.79 35.6317L4419.81 35.6L4416.86 32.9ZM4582.06 32.9L4579.11 35.6L4582.06 32.9ZM4612.16 133.7L4612.59 137.677L4616.16 137.292V133.7H4612.16ZM4540.76 141.4H4536.76V145.855L4541.19 145.377L4540.76 141.4ZM4530.26 84.7L4533.52 82.375V82.375L4530.26 84.7ZM4470.06 81.9L4467.06 79.2535L4470.06 81.9ZM4473.56 161.7L4470.2 163.868L4470.22 163.894L4470.23 163.919L4473.56 161.7ZM4527.46 222.6L4524.63 225.428L4527.46 222.6ZM4601.66 310.8L4598.21 312.815L4598.23 312.858L4598.26 312.9L4601.66 310.8ZM4606.56 445.9L4603.08 443.935L4603.06 443.969L4603.04 444.004L4606.56 445.9ZM4564.56 488.6L4562.6 485.116L4564.56 488.6ZM4502.26 500C4479.54 500 4459.46 495.006 4441.93 485.116L4438 492.084C4456.87 502.727 4478.32 508 4502.26 508V500ZM4441.93 485.116C4424.36 475.208 4410.66 461.5 4400.75 443.935L4393.78 447.865C4404.4 466.7 4419.16 481.459 4438 492.084L4441.93 485.116ZM4400.79 444.004C4391.34 426.458 4386.56 406.358 4386.56 383.6H4378.56C4378.56 407.509 4383.59 428.942 4393.74 447.796L4400.79 444.004ZM4386.56 383.6V366.1H4378.56V383.6H4386.56ZM4382.99 370.077L4454.39 362.377L4453.53 354.423L4382.13 362.123L4382.99 370.077ZM4449.96 358.4V376.6H4457.96V358.4H4449.96ZM4449.96 376.6C4449.96 394.945 4454.31 409.943 4463.47 421.133L4469.66 416.067C4462.01 406.724 4457.96 393.722 4457.96 376.6H4449.96ZM4463.47 421.133C4472.73 432.452 4485.6 438 4501.56 438V430C4487.66 430 4477.2 425.281 4469.66 416.067L4463.47 421.133ZM4501.56 438C4516.84 438 4529.38 433.536 4538.69 424.228L4533.03 418.572C4525.54 426.064 4515.22 430 4501.56 430V438ZM4538.61 424.304C4548.42 415.01 4553.16 402.445 4553.16 387.1H4545.16C4545.16 400.688 4541.04 410.99 4533.11 418.496L4538.61 424.304ZM4553.16 387.1C4553.16 370.399 4548.24 354.487 4538.52 339.431L4531.8 343.768C4540.76 357.646 4545.16 372.068 4545.16 387.1H4553.16ZM4538.57 339.51C4529.41 324.561 4511.11 304.188 4484.02 278.497L4478.51 284.302C4505.55 309.945 4523.18 329.706 4531.75 343.69L4538.57 339.51ZM4484.02 278.498C4447.69 244.036 4423.05 215.642 4409.81 193.263L4402.92 197.337C4416.74 220.691 4442.03 249.697 4478.51 284.302L4484.02 278.498ZM4409.84 193.315C4397.12 171.07 4390.76 146.791 4390.76 120.4H4382.76C4382.76 148.143 4389.47 173.796 4402.89 197.285L4409.84 193.315ZM4390.76 120.4C4390.76 84.2779 4400.58 56.1813 4419.79 35.6315L4413.94 30.1684C4393.02 52.552 4382.76 82.7887 4382.76 120.4H4390.76ZM4419.81 35.6C4438.99 14.6428 4465.37 3.99997 4499.46 3.99997V-4.00003C4463.56 -4.00003 4434.87 7.29045 4413.91 30.1999L4419.81 35.6ZM4499.46 3.99997C4533.56 3.99997 4559.94 14.6428 4579.11 35.6L4585.01 30.1999C4564.05 7.29045 4535.37 -4.00003 4499.46 -4.00003V3.99997ZM4579.11 35.6C4598.35 56.6298 4608.16 84.982 4608.16 121.1H4616.16C4616.16 83.4846 4605.91 53.0368 4585.01 30.1999L4579.11 35.6ZM4608.16 121.1V133.7H4616.16V121.1H4608.16ZM4611.73 129.723L4540.33 137.423L4541.19 145.377L4612.59 137.677L4611.73 129.723ZM4544.76 141.4V127.4H4536.76V141.4H4544.76ZM4544.76 127.4C4544.76 108.327 4541.2 93.1338 4533.52 82.375L4527.01 87.0249C4533.32 95.8661 4536.76 109.139 4536.76 127.4H4544.76ZM4533.52 82.375C4525.7 71.4236 4514.39 66 4500.16 66V74C4512.07 74 4520.83 78.3764 4527.01 87.0249L4533.52 82.375ZM4500.16 66C4486.24 66 4475 70.2626 4467.06 79.2535L4473.06 84.5464C4479.13 77.6707 4487.95 74 4500.16 74V66ZM4467.06 79.2535C4459.18 88.1891 4455.56 100.961 4455.56 116.9H4463.56C4463.56 102.039 4466.95 91.4775 4473.06 84.5464L4467.06 79.2535ZM4455.56 116.9C4455.56 133.158 4460.5 148.834 4470.2 163.868L4476.92 159.531C4467.96 145.632 4463.56 131.442 4463.56 116.9H4455.56ZM4470.23 163.919C4479.81 178.274 4498.02 198.813 4524.63 225.428L4530.29 219.772C4503.71 193.187 4485.99 173.126 4476.89 159.481L4470.23 163.919ZM4524.63 225.428C4560.98 261.774 4585.41 290.878 4598.21 312.815L4605.12 308.785C4591.78 285.922 4566.75 256.226 4530.29 219.772L4524.63 225.428ZM4598.26 312.9C4611.39 334.181 4617.96 357.717 4617.96 383.6H4625.96C4625.96 356.283 4619 331.285 4605.07 308.7L4598.26 312.9ZM4617.96 383.6C4617.96 406.327 4612.97 426.402 4603.08 443.935L4610.05 447.865C4620.69 428.998 4625.96 407.54 4625.96 383.6H4617.96ZM4603.04 444.004C4593.6 461.53 4580.15 475.217 4562.6 485.116L4566.53 492.084C4585.38 481.45 4599.92 466.67 4610.08 447.796L4603.04 444.004ZM4562.6 485.116C4545.07 495.006 4524.99 500 4502.26 500V508C4526.2 508 4547.66 502.727 4566.53 492.084L4562.6 485.116Z" fill="black"></path> </svg> 