<svg width="31" height="32" viewBox="0 0 31 32" fill="none" xmlns="http://www.w3.org/2000/svg">
<path fill-rule="evenodd" clip-rule="evenodd" d="M14.0268 0.0388503C9.17478 0.559598 4.92625 3.28281 2.34306 7.52782C-0.606811 12.3754 -0.784816 18.6579 1.88568 23.674C3.09934 25.9537 4.84016 27.9045 6.98604 29.3897C8.43057 30.3895 10.6231 31.3357 12.301 31.6834C13.5956 31.9517 14.0889 32.0003 15.5115 32C16.9444 31.9997 17.5315 31.9418 18.7379 31.682C24.0668 30.5345 28.533 26.4025 30.2393 21.0413C30.8004 19.2783 31 17.9564 31 16.003C31 14.1191 30.809 12.7933 30.3007 11.15C29.5453 8.70814 28.298 6.58821 26.5293 4.74054C24.1057 2.20863 21.1141 0.650397 17.6638 0.122761C16.9201 0.00898063 14.7676 -0.0406143 14.0268 0.0388503ZM20.4986 10.5844C21.3811 10.7775 22.3004 11.4826 22.7057 12.2772C23.1152 13.0798 23.1204 13.1262 23.1204 16.003C23.1204 18.3478 23.1095 18.6385 23.0089 18.9775C22.7321 19.9105 22.1395 20.6655 21.3474 21.0944C20.5726 21.5139 20.6084 21.5113 15.5378 21.5125C12.5685 21.5132 10.8616 21.4904 10.6269 21.4467C10.4291 21.4098 10.0396 21.2669 9.76148 21.129C8.9102 20.707 8.30688 19.9641 8.01417 18.9775C7.91359 18.6385 7.90268 18.3478 7.90268 16.003C7.90268 13.6583 7.91359 13.3676 8.01417 13.0286C8.30658 12.043 8.90947 11.3002 9.76148 10.876C10.0396 10.7375 10.4036 10.5977 10.5703 10.5653C10.7408 10.5323 12.8894 10.5039 15.4812 10.5006C19.265 10.4958 20.1622 10.5107 20.4986 10.5844ZM14.0406 13.7861C14.0159 13.8114 13.9958 14.7821 13.9958 15.9432C13.9958 17.7357 14.0095 18.0658 14.086 18.1315C14.1607 18.1955 14.4828 18.0354 15.9502 17.205C16.9259 16.6529 17.749 16.1604 17.7794 16.1106C17.8098 16.0608 17.819 15.9777 17.7997 15.9259C17.7615 15.8231 14.4059 13.8039 14.2073 13.7642C14.1402 13.7508 14.0652 13.7606 14.0406 13.7861Z" fill="white"/>
</svg>
