<svg width="6" height="10" viewBox="0 0 6 10" fill="none" xmlns="http://www.w3.org/2000/svg">
<path d="M0.863685 0.646447C0.668423 0.451184 0.351841 0.451184 0.156578 0.646447C-0.0386837 0.841709 -0.0386837 1.15829 0.156578 1.35355L0.863685 0.646447ZM4.58688 5.07675L4.94043 5.4303C5.1357 5.23504 5.1357 4.91846 4.94043 4.7232L4.58688 5.07675ZM0.156578 8.79995C-0.0386837 8.99521 -0.0386837 9.31179 0.156578 9.50705C0.351841 9.70231 0.668423 9.70231 0.863685 9.50705L0.156578 8.79995ZM0.156578 1.35355L4.23333 5.4303L4.94043 4.7232L0.863685 0.646447L0.156578 1.35355ZM4.23333 4.7232L0.156578 8.79995L0.863685 9.50705L4.94043 5.4303L4.23333 4.7232Z" fill="black"/>
</svg>
